HIERARCHY
ROOT root
{
	OFFSET 0.000000 0.000000 0.000000
	CHANNELS 6 Xposition Yposition Zposition Zrotation Yrotation Xrotation
	JOINT lhip
	{
		OFFSET 0.058581 -0.082280 -0.017664
		CHANNELS 3 Zrotation Yrotation Xrotation
		JOINT lknee
		{
			OFFSET 0.043451 -0.386469 0.008037
			CHANNELS 3 Zrotation Yrotation Xrotation
			JOINT lankle
			{
				OFFSET -0.014790 -0.426874 -0.037428
				CHANNELS 3 Zrotation Yrotation Xrotation
				JOINT ltoe
				{
					OFFSET 0.041054 -0.060286 0.122042
					CHANNELS 3 Zrotation Yrotation Xrotation
					End Site
					{
						OFFSET 0.000000 0.000000 0.000000
					}
				}
			}
		}
	}
	JOINT rhip
	{
		OFFSET -0.060310 -0.090513 -0.013543
		CHANNELS 3 Zrotation Yrotation Xrotation
		JOINT rknee
		{
			OFFSET -0.043257 -0.383688 -0.004843
			CHANNELS 3 Zrotation Yrotation Xrotation
			JOINT rankle
			{
				OFFSET 0.019056 -0.420046 -0.034562
				CHANNELS 3 Zrotation Yrotation Xrotation
				JOINT rtoe
				{
					OFFSET -0.034840 -0.062106 0.130323
					CHANNELS 3 Zrotation Yrotation Xrotation
					End Site
					{
						OFFSET 0.000000 0.000000 0.000000
					}
				}
			}
		}
	}
	JOINT lowerback
	{
		OFFSET 0.004439 0.124404 -0.038385
		CHANNELS 3 Zrotation Yrotation Xrotation
		JOINT upperback
		{
			OFFSET 0.004488 0.137956 0.026820
			CHANNELS 3 Zrotation Yrotation Xrotation
			JOINT chest
			{
				OFFSET -0.002265 0.056032 0.002855
				CHANNELS 3 Zrotation Yrotation Xrotation
				JOINT lowerneck
				{
					OFFSET -0.013390 0.211636 -0.033468
					CHANNELS 3 Zrotation Yrotation Xrotation
					JOINT upperneck
					{
						OFFSET 0.010113 0.088937 0.050410
						CHANNELS 3 Zrotation Yrotation Xrotation
						End Site
						{
							OFFSET 0.000000 0.000000 0.000000
						}
					}
				}
				JOINT lclavicle
				{
					OFFSET 0.071702 0.114000 -0.018898
					CHANNELS 3 Zrotation Yrotation Xrotation
					JOINT lshoulder
					{
						OFFSET 0.122921 0.045205 -0.019046
						CHANNELS 3 Zrotation Yrotation Xrotation
						JOINT lelbow
						{
							OFFSET 0.255332 -0.015649 -0.022946
							CHANNELS 3 Zrotation Yrotation Xrotation
							JOINT lwrist
							{
								OFFSET 0.265709 0.012698 -0.007375
								CHANNELS 3 Zrotation Yrotation Xrotation
								End Site
								{
									OFFSET 0.000000 0.000000 0.000000
								}
							}
						}
					}
				}
				JOINT rclavicle
				{
					OFFSET -0.082954 0.112472 -0.023707
					CHANNELS 3 Zrotation Yrotation Xrotation
					JOINT rshoulder
					{
						OFFSET -0.113228 0.046853 -0.008472
						CHANNELS 3 Zrotation Yrotation Xrotation
						JOINT relbow
						{
							OFFSET -0.260127 -0.014369 -0.031269
							CHANNELS 3 Zrotation Yrotation Xrotation
							JOINT rwrist
							{
								OFFSET -0.269108 0.006794 -0.006027
								CHANNELS 3 Zrotation Yrotation Xrotation
								End Site
								{
									OFFSET 0.000000 0.000000 0.000000
								}
							}
						}
					}
				}
			}
		}
	}
}
MOTION
Frames: 10
Frame Time: 0.033333
0.034385 0.220084 1.006115 -161.789029 -0.690994 97.519021 4.305838 -2.881907 -10.995118 0.690598 -7.244988 0.509792 -4.531728 0.724880 -4.731282 0.000000 -0.000000 0.000000 -6.286487 -4.216322 -5.690772 0.741930 -8.501711 3.194002 7.470618 -4.624561 -5.833784 0.000000 -0.000000 0.000000 1.131605 -0.339363 3.610987 9.967824 -7.550469 -4.016105 6.770819 -1.017098 -7.474231 -9.683854 12.944223 3.677032 -5.054787 26.899204 -12.819328 -15.267269 -5.072992 -2.936613 -42.455101 -7.925025 20.148379 -155.672772 -78.361840 -173.934447 -8.150815 -26.097225 -19.605993 10.490946 -2.473136 -14.358853 -5.023191 13.581295 -23.087302 -145.018217 29.842905 -140.075652 5.486835 28.655083 -19.377295 
0.034904 0.219027 1.006580 -164.071236 -0.390753 97.407668 4.444036 -1.897433 -10.281048 0.797301 -6.462987 0.219552 -3.530428 0.937644 -5.058639 0.000000 -0.000000 0.000000 -6.302817 -3.415834 -6.223609 0.745385 -7.696095 3.573360 7.989027 -3.937151 -5.479536 0.000000 -0.000000 0.000000 -0.128265 -0.156988 3.796817 11.301859 -7.030277 -3.136327 6.886823 0.514356 -7.842602 -8.475973 13.271795 3.786036 -4.841049 26.075835 -10.870340 -14.686243 -5.128275 -1.977478 -43.235246 -8.412798 19.746532 -152.956844 -78.658360 -174.222143 -3.172733 -24.905538 -24.661989 14.549233 0.230899 -13.878950 -6.222656 19.863572 -27.980385 -140.910863 26.926236 -131.837072 -15.908855 24.711126 -14.653421 
0.034519 0.217866 1.006522 -167.792356 0.020756 97.153020 4.474740 -0.756708 -9.107589 1.161335 -4.801694 -0.339288 -3.098797 1.617327 -5.066526 0.000000 -0.000000 0.000000 -6.318723 -2.463843 -7.243531 0.741907 -6.193384 4.387993 8.231175 -2.752088 -5.300693 0.000000 -0.000000 0.000000 0.032916 0.515693 3.845836 11.648652 -5.923653 -1.214591 6.439873 2.726095 -8.665482 -8.340669 13.270375 3.599139 -4.483159 24.523219 -9.775820 -14.860294 -6.779417 -1.780934 -42.047540 -7.926724 19.987601 -150.890790 -78.806038 -174.979023 2.197989 -23.836142 -28.592236 16.180906 4.926599 -12.147383 -8.385590 24.368032 -30.911800 -138.850661 24.216570 -128.664554 -37.435680 26.768131 -13.236882 
0.032990 0.214968 1.007152 -172.839205 0.245402 96.898097 4.241107 0.656084 -7.853380 1.373758 -2.172648 -0.832846 -2.255394 2.473784 -4.670160 0.000000 -0.000000 0.000000 -6.424948 -1.501068 -8.739956 0.511976 -4.075577 5.259610 8.602094 -1.021389 -4.798102 0.000000 -0.000000 0.000000 1.354886 1.451787 4.254430 11.082952 -4.376474 -0.016430 5.502887 4.165555 -9.612722 -6.733746 13.821243 4.989854 -5.482688 23.086314 -8.630210 -13.705797 -9.073778 -1.065713 -41.464849 -6.071044 19.661246 -152.915628 -78.737505 -170.189282 5.253287 -23.424501 -30.805062 15.689270 11.284307 -9.200741 -9.263328 32.468771 -33.929839 -138.787206 22.900760 -121.729097 -47.761471 29.385859 -6.412884 
0.032033 0.212909 1.007762 -175.287232 0.038953 96.945973 3.803062 1.153274 -7.606560 1.375166 -0.984203 -0.787142 -1.912790 3.091935 -4.532263 0.000000 -0.000000 0.000000 -6.787054 -1.127648 -9.724424 0.384126 -3.083927 5.749314 8.692387 -0.200061 -4.511947 0.000000 -0.000000 0.000000 2.002306 1.817086 4.654465 10.573404 -3.670341 0.058831 5.280210 4.791321 -10.210305 -5.882566 13.668044 5.828004 -5.938861 22.707885 -8.061553 -13.097548 -10.283316 -0.808563 -41.211691 -4.979497 19.932399 -154.347244 -78.739206 -168.480948 5.961213 -23.248695 -30.957890 14.396638 14.340379 -7.801408 -8.541970 35.835435 -32.675357 -139.495273 25.648591 -120.403120 -47.888724 29.729674 -4.907900 
0.030941 0.211155 1.009001 -177.307120 -0.305428 97.073538 3.282137 1.718211 -7.531729 1.154195 -0.268607 -0.653905 -1.679207 3.904152 -4.671567 0.000000 -0.000000 0.000000 -7.366130 -1.325994 -10.576687 0.579602 -1.703391 6.126532 8.771958 0.346689 -4.127120 0.000000 -0.000000 0.000000 2.449683 2.005572 4.718856 9.997722 -3.139243 -0.108769 5.474623 5.116191 -10.401758 -5.086404 13.375396 6.180268 -6.531397 22.578117 -7.712142 -12.019047 -10.874476 -1.196922 -41.333753 -4.675341 20.524302 -151.918448 -78.509347 -172.805296 5.560864 -22.381832 -29.036202 11.790751 15.885282 -6.524595 -7.354487 36.397603 -28.125702 -139.526552 34.716448 -123.199455 -43.847494 25.340038 -8.225326 
0.030745 0.210085 1.010488 -177.308516 -0.447050 96.896463 3.140206 1.944289 -7.361452 0.863122 -1.065001 -0.670419 -2.031031 4.722416 -4.901291 0.000000 -0.000000 0.000000 -7.630743 -1.714632 -10.336449 0.887158 -1.093995 6.054301 8.340210 -0.104690 -4.026061 0.000000 -0.000000 0.000000 2.949756 1.566753 4.525084 9.450994 -3.220800 -0.293367 5.804308 4.412611 -10.073088 -5.422915 12.890987 6.322450 -6.340843 23.263923 -8.646108 -11.773847 -10.138701 -2.308593 -40.455633 -5.238084 20.870436 -148.566537 -77.595160 -179.772031 3.125183 -21.390606 -23.763837 8.436171 14.632592 -6.827927 -7.065909 33.748990 -22.659069 -138.319839 46.378442 -131.132885 -29.119834 18.890093 -18.674199 
0.030576 0.210868 1.010812 -175.293561 -0.273679 96.156552 3.460594 1.504143 -6.747530 0.647227 -2.882141 -0.890556 -2.622813 5.416817 -4.965817 0.000000 -0.000000 0.000000 -7.294643 -1.898792 -8.722030 0.954847 -0.965541 5.488587 7.639519 -2.016608 -4.327832 0.000000 -0.000000 0.000000 4.028979 0.403096 5.540125 8.280569 -3.712441 -1.875698 6.144621 3.433981 -9.331455 -5.948163 11.693075 6.189425 -6.174388 24.436294 -9.602540 -12.596969 -10.208606 -2.922793 -38.742446 -4.933277 20.753080 -150.714715 -76.666700 179.579984 -1.468605 -21.814246 -19.222101 3.706101 12.751281 -7.982370 -6.422229 26.081047 -17.088749 -137.776193 55.076845 -136.385026 0.065094 20.024115 -34.564452 
0.029740 0.213315 1.010342 -171.932428 -0.039316 95.704406 3.815306 0.720955 -6.695828 0.775436 -4.814315 -0.942509 -3.955341 5.267550 -4.884039 0.000000 -0.000000 0.000000 -6.780015 -2.565762 -7.180991 0.871856 -1.903353 5.101543 7.188562 -3.592836 -4.964734 0.000000 -0.000000 0.000000 4.974028 -0.763131 5.757668 7.536326 -4.767050 -2.624048 6.129322 2.688271 -8.528835 -7.911967 10.571906 5.958819 -5.515192 25.018032 -11.504184 -14.037568 -11.130721 -3.791638 -36.419339 -3.991885 19.976587 -151.804762 -75.417490 177.667977 -5.397530 -23.824750 -15.838219 0.859784 10.876268 -8.513924 -9.775942 15.537123 -13.822304 -151.147431 59.214873 -151.316311 14.904496 29.626203 -30.372513 
0.029216 0.215506 1.009878 -167.688136 -0.043112 95.866746 4.133998 -0.711667 -7.743094 0.795873 -6.247731 -0.421422 -4.952677 4.335878 -4.715461 0.000000 -0.000000 0.000000 -6.370331 -3.392558 -6.189585 0.669937 -3.808187 4.855518 6.985991 -4.816571 -5.498755 0.000000 -0.000000 0.000000 5.251947 -1.601369 5.592446 7.449900 -6.061147 -3.843277 6.255853 1.129607 -7.585046 -10.110506 9.957605 5.913623 -5.584761 26.366130 -13.117442 -15.035669 -10.925916 -4.212718 -35.418080 -3.422274 19.325944 -153.353849 -74.955020 177.582843 -10.691881 -25.901604 -14.845520 -0.476312 6.604930 -9.935675 -12.814387 7.622119 -12.574327 -165.036792 54.014850 -164.469313 32.576631 35.903178 -19.400715 
